<?xml version="1.0" standalone="no"?>
<!DOCTYPE svg PUBLIC "-//W3C//DTD SVG 20010904//EN"
 "http://www.w3.org/TR/2001/REC-SVG-20010904/DTD/svg10.dtd">
<svg version="1.0" xmlns="http://www.w3.org/2000/svg"
 width="1000.000000pt" height="1000.000000pt" viewBox="0 0 1000.000000 1000.000000"
 preserveAspectRatio="xMidYMid meet">
<metadata>
Created by potrace 1.14, written by Peter Selinger 2001-2017
</metadata>
<g transform="translate(0.000000,1000.000000) scale(0.100000,-0.100000)"
fill="#000000" stroke="none">
<path d="M4943 6378 c-13 -6 -23 -14 -23 -17 0 -3 -20 -7 -44 -7 -128 -4 -221
-156 -221 -361 0 -74 3 -96 17 -109 16 -17 17 -16 7 20 -16 59 -2 54 15 -5 21
-69 20 -76 -5 -53 -19 17 -19 13 6 -36 15 -30 45 -83 67 -117 26 -41 38 -70
35 -88 -3 -29 -49 -65 -82 -65 -15 0 -17 -2 -6 -9 11 -7 11 -9 0 -14 -10 -4
-8 -6 4 -6 23 -1 55 15 85 42 16 15 22 17 22 6 1 -10 5 -9 15 5 8 10 12 23 9
27 -3 5 3 9 13 9 14 0 15 2 5 9 -9 5 -1 10 27 15 55 9 61 25 6 18 -42 -4 -47
-2 -88 39 -43 43 -85 99 -74 99 3 0 16 -17 28 -37 23 -37 23 -37 29 -13 6 24
7 24 18 -9 14 -41 39 -71 59 -71 10 0 13 18 13 70 0 44 4 70 11 70 6 0 -12 27
-41 59 -34 40 -53 72 -57 96 -4 24 -13 40 -27 45 -17 7 -18 9 -3 9 10 1 20 8
23 16 6 14 8 13 20 -2 12 -16 13 -17 14 -1 0 26 -21 33 -37 12 -12 -16 -15
-17 -23 -4 -14 22 -12 28 13 33 19 4 18 4 -5 6 -25 1 -28 5 -30 39 -4 75 1 86
50 132 27 25 57 52 68 60 18 15 18 14 1 -12 -19 -31 -14 -34 23 -13 32 19 44
19 36 0 -3 -9 0 -15 7 -15 7 0 39 -27 71 -60 32 -33 64 -60 72 -60 7 0 16 -4
19 -10 3 -6 -1 -7 -9 -4 -22 8 -21 -39 0 -61 19 -19 40 -15 36 7 -1 9 7 18 18
21 23 6 24 4 40 -118 6 -44 13 -87 16 -96 3 -12 -5 -20 -27 -28 -17 -6 -46
-26 -64 -46 -28 -29 -32 -31 -27 -12 3 12 13 34 24 49 28 40 22 43 -12 4 -17
-19 -49 -44 -73 -55 -23 -12 -34 -21 -25 -21 20 0 31 -30 23 -63 -7 -26 -98
-105 -200 -174 -74 -49 -132 -113 -140 -150 -3 -16 -10 -41 -15 -58 -8 -24 -9
-19 -6 27 3 31 14 78 25 103 17 39 18 45 4 34 -24 -21 -53 -89 -53 -130 0
-105 62 -200 165 -249 73 -35 96 -39 72 -12 -10 10 -17 21 -17 25 0 3 25 23
56 43 30 20 70 57 89 81 40 52 62 135 46 173 -9 23 -10 22 -11 -15 -1 -45 -28
-113 -67 -163 -23 -31 -106 -92 -124 -92 -4 0 -15 20 -24 44 -25 66 -18 175
17 246 34 70 124 179 188 228 29 22 51 48 55 64 9 36 40 75 77 94 48 25 90 11
139 -44 42 -46 44 -43 7 10 -11 16 -17 32 -14 37 3 5 -3 28 -13 52 -13 31 -20
76 -23 149 -3 58 -1 94 3 80 4 -14 7 -58 8 -97 1 -62 7 -87 40 -160 21 -49 42
-97 46 -108 7 -19 8 -19 15 5 19 62 11 122 -26 189 -20 36 -42 94 -50 127 -13
64 -48 144 -63 144 -4 0 -16 18 -26 40 -42 92 -176 169 -242 138z m57 -43 c0
-7 -9 -15 -20 -18 -11 -3 -20 -11 -20 -17 0 -7 8 -10 20 -7 15 4 20 0 20 -13
0 -13 14 -23 49 -35 53 -17 75 -37 114 -105 21 -35 27 -40 27 -23 0 37 -37
124 -67 156 -24 25 -25 28 -6 18 35 -18 61 -59 72 -114 11 -60 21 -298 10
-252 -3 17 -7 52 -8 78 -2 86 -64 183 -144 223 -29 15 -55 32 -59 38 -4 6 -19
11 -34 11 -39 0 -40 21 -2 41 18 9 27 19 21 21 -21 7 -14 22 7 16 11 -3 20
-11 20 -18z m-90 -4 c0 -5 -8 -15 -17 -22 -16 -12 -17 -12 -6 2 7 9 10 19 6
22 -3 4 -1 7 5 7 7 0 12 -4 12 -9z m335 -481 l30 -35 -32 29 c-18 17 -33 34
-33 40 0 5 1 7 3 5 1 -2 16 -20 32 -39z"/>
<path d="M4860 6125 c-13 -14 -20 -28 -16 -32 4 -4 20 7 37 25 18 19 25 32 16
32 -7 0 -24 -11 -37 -25z"/>
<path d="M4933 6103 c22 -6 12 -23 -13 -23 -10 0 -22 -5 -26 -12 -5 -7 -3 -8
6 -3 10 6 12 4 7 -7 -4 -11 -1 -15 11 -13 9 2 20 4 23 4 3 1 11 12 17 25 9 20
8 25 -4 30 -9 3 -21 5 -27 5 -7 -1 -4 -3 6 -6z"/>
<path d="M5130 5975 c0 -8 2 -15 4 -15 2 0 6 7 10 15 3 8 1 15 -4 15 -6 0 -10
-7 -10 -15z"/>
<path d="M4871 5881 c-16 -11 -6 -47 16 -55 18 -7 56 22 47 35 -3 5 2 9 10 9
9 0 16 5 16 10 0 12 -70 13 -89 1z"/>
<path d="M4890 5715 c0 -65 1 -67 23 -60 12 3 28 7 34 7 7 1 22 11 34 24 29
31 18 63 -21 62 -17 -1 -39 7 -50 17 -20 18 -20 17 -20 -50z"/>
<path d="M4985 5597 c-16 -18 -41 -40 -55 -50 -19 -12 -20 -15 -5 -10 35 11
60 31 78 63 23 38 19 38 -18 -3z"/>
<path d="M5357 5570 c-4 -30 -11 -100 -17 -154 -6 -55 -22 -144 -35 -197 -14
-54 -25 -110 -24 -126 1 -42 47 143 76 306 20 111 23 153 16 185 l-10 41 -6
-55z"/>
<path d="M5034 5557 c-8 -27 -7 -41 3 -61 9 -17 17 -91 23 -207 5 -100 12
-184 15 -187 9 -9 4 291 -6 348 -5 30 -13 74 -17 98 l-7 43 -11 -34z"/>
<path d="M1674 4970 c-71 -16 -78 -35 -122 -344 -38 -264 -38 -265 -18 -270
62 -17 62 -16 81 124 10 72 20 130 22 130 2 0 62 -7 134 -16 72 -9 132 -14
134 -12 2 2 6 15 10 29 8 31 12 29 -154 55 l-113 18 7 68 c8 88 22 127 49 137
12 5 73 1 146 -10 69 -10 128 -19 132 -19 7 0 22 59 16 65 -3 4 -202 39 -268
49 -14 2 -39 0 -56 -4z"/>
<path d="M8168 4949 c-85 -12 -132 -42 -166 -104 -33 -61 -17 -296 30 -422 46
-126 155 -155 309 -82 62 29 64 30 77 11 9 -13 20 -17 42 -14 24 3 29 8 25 26
-2 11 -12 77 -20 146 -22 175 -20 170 -54 170 -33 0 -181 -27 -189 -34 -2 -3
-1 -17 2 -32 7 -26 7 -26 76 -19 l69 7 6 -36 c4 -20 8 -60 9 -89 l1 -52 -65
-22 c-106 -36 -163 -27 -199 31 -48 78 -70 335 -34 385 32 43 79 60 194 67
l106 7 -6 31 -7 31 -74 1 c-41 1 -101 -2 -132 -7z"/>
<path d="M2073 4608 c-79 -166 -142 -302 -140 -304 1 -1 20 -5 42 -8 l41 -7
34 76 c18 42 38 79 44 81 12 5 235 -21 241 -28 3 -2 12 -40 21 -84 9 -43 21
-82 28 -86 6 -4 26 -8 44 -8 27 0 32 3 28 18 -2 9 -33 157 -67 327 -34 171
-63 311 -63 311 -1 1 -26 4 -56 8 l-55 6 -142 -302z m222 57 c15 -85 26 -157
24 -160 -8 -7 -200 17 -197 25 29 70 133 290 138 290 3 0 19 -70 35 -155z"/>
<path d="M7594 4880 c-116 -17 -172 -58 -195 -142 -15 -56 -5 -252 16 -333 35
-131 84 -170 215 -169 148 1 233 47 259 141 15 54 13 166 -4 267 -23 132 -53
189 -115 221 -34 18 -115 25 -176 15z m145 -95 c17 -15 36 -46 45 -73 21 -63
38 -225 30 -280 -12 -82 -70 -122 -177 -122 -112 0 -147 58 -163 273 -13 169
31 223 183 226 41 1 57 -4 82 -24z"/>
<path d="M2610 4547 l-66 -316 34 -6 c19 -4 38 -3 42 2 4 4 29 113 55 241 27
128 51 227 55 220 4 -7 27 -120 51 -250 l44 -238 40 0 40 0 89 230 c57 145 93
226 98 218 4 -7 8 -106 8 -220 0 -114 4 -218 10 -232 8 -21 16 -26 44 -26 l35
0 -4 78 c-3 42 -7 185 -10 316 -5 258 -5 256 -60 256 -30 0 -31 -2 -119 -223
-122 -302 -117 -290 -121 -285 -3 3 -30 123 -60 268 -30 145 -56 264 -58 266
-1 2 -21 6 -42 9 l-40 7 -65 -315z"/>
<path d="M6950 4813 l-25 -4 23 -272 c25 -301 31 -323 93 -343 25 -9 70 -9
172 -1 l137 11 0 38 c0 44 10 42 -143 28 -117 -11 -143 -6 -152 33 -5 21 -45
469 -45 502 0 15 -10 16 -60 8z"/>
<path d="M3391 4777 c-55 -28 -64 -54 -77 -239 -7 -95 -13 -205 -13 -243 -1
-124 28 -142 244 -151 l145 -7 0 36 0 35 -87 6 c-230 17 -230 17 -216 142 l8
78 105 -2 c58 -2 120 -5 138 -9 31 -5 32 -4 32 30 l0 34 -77 7 c-43 3 -104 9
-135 13 l-58 6 0 51 c1 64 15 126 32 138 7 5 75 6 156 3 l142 -7 0 35 0 34
-122 11 c-153 15 -187 15 -217 -1z"/>
<path d="M6476 4783 l-78 -4 6 -72 c3 -40 13 -182 22 -317 8 -134 17 -246 19
-249 3 -2 72 1 155 6 162 12 194 22 234 76 16 22 21 43 21 95 0 78 -27 132
-75 152 -35 14 -38 25 -11 39 51 28 62 151 20 220 -36 59 -67 64 -313 54z
m237 -91 c40 -41 28 -145 -21 -170 -9 -5 -56 -12 -104 -15 l-88 -6 0 28 c0 15
-3 62 -6 104 l-7 76 69 4 c97 6 135 0 157 -21z m34 -274 c28 -29 40 -90 24
-130 -17 -44 -49 -58 -153 -65 l-95 -6 -6 63 c-4 35 -7 85 -7 111 l0 48 58 4
c109 8 152 2 179 -25z"/>
<path d="M3840 4748 c0 -13 -7 -138 -15 -278 -21 -366 -23 -337 24 -342 l39
-3 6 65 c3 36 11 177 17 313 14 272 14 267 -43 267 -22 0 -28 -5 -28 -22z"/>
<path d="M4057 4668 c-4 -51 -9 -195 -13 -320 l-7 -228 40 0 40 0 6 107 c4 58
7 149 8 202 0 53 3 113 7 134 l7 38 146 -248 c144 -243 147 -248 181 -251 l35
-3 7 228 c4 125 9 270 13 321 l6 92 -41 0 c-27 0 -42 -5 -46 -16 -3 -9 -7 -70
-7 -137 -1 -67 -4 -169 -8 -227 l-6 -105 -119 200 c-65 110 -133 224 -150 253
-27 45 -35 52 -62 52 l-31 0 -6 -92z"/>
<path d="M5682 4472 c-45 -152 -89 -298 -97 -324 l-14 -48 43 0 43 0 27 90 27
90 124 0 123 0 30 -77 29 -78 45 -3 46 -3 -117 316 -116 315 -55 0 -55 0 -83
-278z m196 47 c29 -81 52 -149 52 -152 0 -7 -190 -21 -196 -14 -5 5 72 291 83
310 7 12 5 17 61 -144z"/>
<path d="M4703 4721 c-59 -27 -77 -66 -77 -168 0 -129 35 -162 184 -173 100
-8 118 -14 131 -47 19 -51 11 -103 -21 -134 l-30 -30 -132 2 -133 2 -3 -31
c-3 -30 -3 -30 55 -38 109 -15 224 -10 267 11 66 33 81 63 81 163 0 138 -34
170 -194 182 -74 5 -97 11 -107 25 -21 29 -27 80 -14 120 19 56 59 69 188 60
l103 -6 -3 33 c-3 31 -6 33 -48 40 -92 14 -203 9 -247 -11z"/>
<path d="M5090 4700 l0 -40 94 0 93 0 6 -67 c4 -38 7 -164 7 -280 l0 -213 40
0 40 0 0 285 0 285 95 0 95 0 0 35 0 35 -235 0 -235 0 0 -40z"/>
<path d="M3687 3800 c-3 -11 -1 -22 3 -25 5 -3 11 -19 15 -36 4 -17 13 -42 21
-57 8 -15 14 -33 14 -39 0 -7 6 -13 14 -13 10 0 5 24 -21 93 -19 50 -36 93
-38 95 -1 1 -5 -6 -8 -18z"/>
<path d="M3800 3725 c0 -57 4 -95 10 -95 6 0 10 38 10 95 0 57 -4 95 -10 95
-6 0 -10 -38 -10 -95z"/>
<path d="M3860 3725 c0 -57 4 -95 10 -95 6 0 10 38 10 95 0 57 -4 95 -10 95
-6 0 -10 -38 -10 -95z"/>
<path d="M4090 3725 c0 -69 3 -95 13 -95 9 0 11 24 9 95 -2 52 -8 95 -13 95
-5 0 -9 -43 -9 -95z"/>
<path d="M5125 3725 c0 -52 3 -95 8 -95 4 0 7 43 7 95 0 52 -3 95 -7 95 -5 0
-8 -43 -8 -95z"/>
<path d="M5650 3725 c0 -57 4 -95 10 -95 6 0 10 38 10 95 0 57 -4 95 -10 95
-6 0 -10 -38 -10 -95z"/>
<path d="M5820 3725 c0 -69 3 -95 13 -95 9 0 11 24 9 95 -2 52 -8 95 -13 95
-5 0 -9 -43 -9 -95z"/>
<path d="M4610 3720 c0 -94 16 -125 22 -42 4 67 -2 132 -13 132 -5 0 -9 -40
-9 -90z"/>
<path d="M4700 3805 c0 -5 5 -17 10 -25 5 -8 10 -10 10 -5 0 6 -5 17 -10 25
-5 8 -10 11 -10 5z"/>
<path d="M5380 3788 c-31 -33 -28 -107 6 -139 l25 -24 -15 30 c-20 37 -20 92
-2 128 18 33 14 34 -14 5z"/>
<path d="M5482 3791 c7 -9 14 -18 15 -20 2 -2 3 5 3 16 0 11 -7 20 -15 20 -12
0 -12 -3 -3 -16z"/>
<path d="M6035 3789 c-10 -15 3 -25 16 -12 7 7 7 13 1 17 -6 3 -14 1 -17 -5z"/>
<path d="M6166 3792 c-3 -6 -1 -14 5 -17 15 -10 25 3 12 16 -7 7 -13 7 -17 1z"/>
<path d="M4459 3756 c-2 -3 -2 -31 1 -63 4 -48 8 -58 25 -60 11 -2 14 0 8 3
-8 4 -13 27 -13 65 0 52 -7 69 -21 55z"/>
<path d="M6098 3754 c-9 -9 -11 -86 -2 -108 3 -9 16 -15 28 -15 16 1 17 2 4 6
-13 3 -18 18 -20 65 -2 33 -6 56 -10 52z"/>
<path d="M4677 3737 c-3 -8 -1 -20 4 -28 6 -10 9 -7 9 14 0 29 -5 35 -13 14z"/>
<path d="M4032 3688 c2 -28 8 -53 13 -55 6 -2 9 18 7 52 -2 30 -8 55 -13 55
-6 0 -9 -23 -7 -52z"/>
<path d="M4155 3714 c9 -17 10 -35 5 -55 -10 -35 7 -29 20 7 12 29 -3 74 -24
74 -13 0 -13 -4 -1 -26z"/>
<path d="M4222 3728 c-16 -16 -15 -73 1 -86 9 -8 12 2 12 44 0 30 0 54 0 54
-1 0 -6 -5 -13 -12z"/>
<path d="M4285 3685 c0 -42 3 -51 13 -43 6 6 12 25 12 43 0 18 -6 37 -12 43
-10 8 -13 -2 -13 -43z"/>
<path d="M4340 3701 c0 -54 8 -71 34 -70 16 1 17 2 4 6 -14 3 -18 15 -18 54 0
27 -4 49 -10 49 -5 0 -10 -18 -10 -39z"/>
<path d="M4400 3691 c0 -28 5 -53 10 -56 6 -4 10 15 10 49 0 31 -4 56 -10 56
-5 0 -10 -22 -10 -49z"/>
<path d="M4733 3714 c-15 -24 -15 -29 -2 -53 15 -27 54 -40 71 -23 6 6 1 8
-14 5 -37 -7 -54 19 -40 62 12 42 8 44 -15 9z"/>
<path d="M4790 3720 c0 -11 7 -20 15 -20 13 0 14 4 5 20 -6 11 -13 20 -15 20
-3 0 -5 -9 -5 -20z"/>
<path d="M4848 3685 c5 -71 22 -71 22 0 0 37 -4 55 -12 55 -9 0 -12 -16 -10
-55z"/>
<path d="M4895 3723 c12 -11 16 -28 13 -55 -2 -21 0 -38 4 -38 5 0 8 25 8 55
0 49 -2 55 -21 55 -19 0 -19 -1 -4 -17z"/>
<path d="M4943 3734 c13 -4 17 -16 17 -55 0 -28 5 -49 11 -49 6 0 9 21 7 53
-3 47 -5 52 -28 54 -14 1 -18 0 -7 -3z"/>
<path d="M5062 3688 c3 -44 6 -53 23 -55 11 -2 14 0 8 3 -8 3 -13 25 -13 55 0
28 -5 49 -11 49 -6 0 -9 -20 -7 -52z"/>
<path d="M5190 3725 c-29 -35 -7 -95 36 -95 12 0 25 4 28 9 3 4 -5 6 -18 4
-33 -7 -51 27 -37 68 11 33 9 36 -9 14z"/>
<path d="M5244 3719 c0 -10 6 -19 13 -19 7 0 13 4 13 9 0 5 -6 13 -13 19 -10
8 -13 6 -13 -9z"/>
<path d="M5538 3715 c-8 -18 -9 -35 -2 -53 8 -22 16 -27 44 -29 19 -1 26 1 15
4 -37 10 -47 25 -42 65 6 44 1 48 -15 13z"/>
<path d="M5600 3721 c0 -12 5 -21 10 -21 6 0 10 6 10 14 0 8 -4 18 -10 21 -5
3 -10 -3 -10 -14z"/>
<path d="M5714 3715 c-23 -35 -7 -79 30 -83 16 -2 33 1 39 7 7 7 3 8 -12 4
-11 -3 -28 0 -36 7 -18 15 -20 61 -3 78 7 7 9 12 5 12 -3 0 -14 -11 -23 -25z"/>
<path d="M5770 3721 c0 -12 5 -21 10 -21 6 0 10 6 10 14 0 8 -4 18 -10 21 -5
3 -10 -3 -10 -14z"/>
<path d="M5884 3724 c19 -18 20 -46 5 -77 -10 -21 -9 -21 10 2 12 13 21 30 21
38 0 24 -20 53 -36 53 -14 0 -14 -2 0 -16z"/>
<path d="M5948 3685 c5 -71 22 -71 22 0 0 37 -4 55 -12 55 -9 0 -12 -16 -10
-55z"/>
<path d="M5985 3730 c3 -5 10 -10 16 -10 5 0 9 5 9 10 0 6 -7 10 -16 10 -8 0
-12 -4 -9 -10z"/>
<path d="M6038 3685 c2 -30 7 -55 10 -55 4 0 5 25 4 55 -2 30 -7 55 -10 55 -4
0 -5 -25 -4 -55z"/>
<path d="M6168 3685 c5 -71 22 -71 22 0 0 37 -4 55 -12 55 -9 0 -12 -16 -10
-55z"/>
<path d="M6232 3728 c-7 -7 -12 -26 -12 -43 0 -17 5 -36 12 -43 13 -13 54 -16
62 -4 2 4 -8 8 -22 7 -26 0 -27 3 -27 48 0 26 0 47 0 47 -1 0 -6 -5 -13 -12z"/>
<path d="M6287 3721 c3 -12 10 -21 15 -21 13 0 6 32 -9 37 -7 3 -9 -3 -6 -16z"/>
<path d="M6336 3724 c-5 -14 0 -25 21 -41 15 -13 27 -30 25 -39 -2 -9 1 -13 7
-9 18 11 12 44 -10 55 -11 6 -24 21 -28 32 -7 20 -8 20 -15 2z"/>
<path d="M6385 3730 c3 -5 8 -10 11 -10 2 0 4 5 4 10 0 6 -5 10 -11 10 -5 0
-7 -4 -4 -10z"/>
<path d="M3987 3723 c-4 -3 -7 -11 -7 -17 0 -6 5 -5 12 2 6 6 9 14 7 17 -3 3
-9 2 -12 -2z"/>
<path d="M5015 3721 c-3 -5 -1 -12 5 -16 5 -3 10 1 10 9 0 18 -6 21 -15 7z"/>
<path d="M3987 3673 c-16 -16 -6 -43 16 -43 16 0 19 3 8 9 -8 5 -11 16 -8 25
6 16 -4 22 -16 9z"/>
<path d="M5020 3665 c-14 -17 -5 -35 18 -35 14 0 14 2 3 9 -8 5 -11 16 -8 25
8 20 3 20 -13 1z"/>
<path d="M5483 3650 c-11 -16 -10 -18 2 -14 8 4 15 12 15 20 0 19 -3 18 -17
-6z"/>
<path d="M6330 3645 c0 -8 4 -15 10 -15 5 0 7 7 4 15 -4 8 -8 15 -10 15 -2 0
-4 -7 -4 -15z"/>
</g>
</svg>
